<?xml version="1.0" encoding="iso-8859-1"?>
<!-- Uploaded to: SVG Repo, www.svgrepo.com, Generator: SVG Repo Mixer Tools -->
<svg fill="#000000" height="800px" width="800px" version="1.1" id="Layer_1" xmlns="http://www.w3.org/2000/svg" xmlns:xlink="http://www.w3.org/1999/xlink" 
	 viewBox="0 0 496 496" xml:space="preserve">
<g>
	<g>
		<path d="M247.692,19.584C121.74,19.584,19.272,122.052,19.272,248c0,125.952,102.472,228.42,228.424,228.42
			S476.108,373.952,476.108,248S373.644,19.584,247.692,19.584z M247.696,429.92c-100.312,0-181.92-81.608-181.92-181.92
			c0-100.308,81.608-181.916,181.92-181.916c100.308,0,181.912,81.608,181.916,181.916
			C429.612,348.312,348.004,429.92,247.696,429.92z"/>
	</g>
</g>
<g>
	<g>
		<path d="M492.328,244.132l-196.6-10.612c-1.028-3.396-2.4-6.64-4.08-9.688l60.548-73.968c0.084-0.1,0.108-0.228,0.176-0.332
			c0.152-0.228,0.272-0.456,0.372-0.7c0.088-0.232,0.16-0.452,0.212-0.688c0.048-0.248,0.064-0.48,0.064-0.732
			c0-0.248-0.016-0.488-0.064-0.732c-0.052-0.236-0.12-0.46-0.212-0.688c-0.096-0.248-0.22-0.472-0.372-0.696
			c-0.068-0.108-0.088-0.236-0.176-0.336c-0.084-0.1-0.204-0.148-0.292-0.24c-0.088-0.096-0.144-0.22-0.248-0.308
			c-0.104-0.088-0.236-0.108-0.34-0.18c-0.228-0.148-0.448-0.268-0.696-0.368c-0.232-0.088-0.448-0.16-0.684-0.204
			c-0.248-0.044-0.484-0.068-0.736-0.068c-0.256,0-0.492,0.02-0.744,0.068c-0.236,0.048-0.452,0.116-0.672,0.204
			c-0.248,0.096-0.476,0.22-0.704,0.372c-0.104,0.068-0.236,0.092-0.34,0.176l-73.72,60.34c-3.3-1.94-6.82-3.552-10.552-4.708
			L251.876,3.668C251.756,1.608,250.064,0,248,0c-2.056,0-3.756,1.608-3.868,3.668L233.54,199.884
			c-3.924,1.16-7.636,2.796-11.1,4.824l-73.672-60.3c-0.104-0.084-0.236-0.104-0.348-0.18c-0.224-0.148-0.444-0.264-0.688-0.364
			c-0.228-0.088-0.452-0.16-0.688-0.204c-0.248-0.048-0.484-0.068-0.736-0.068c-0.252,0-0.484,0.016-0.736,0.068
			c-0.236,0.048-0.456,0.116-0.684,0.204c-0.248,0.096-0.468,0.216-0.692,0.364c-0.108,0.076-0.244,0.096-0.344,0.18
			c-0.108,0.092-0.156,0.212-0.248,0.312c-0.092,0.088-0.212,0.136-0.292,0.236c-0.084,0.104-0.104,0.232-0.176,0.336
			c-0.152,0.228-0.272,0.448-0.376,0.7c-0.084,0.228-0.156,0.452-0.208,0.688c-0.044,0.244-0.064,0.48-0.068,0.732
			c0.004,0.248,0.024,0.488,0.068,0.728c0.052,0.244,0.12,0.464,0.208,0.688c0.1,0.248,0.224,0.476,0.376,0.7
			c0.072,0.104,0.092,0.232,0.176,0.336l60.476,73.884c-1.716,3.088-3.1,6.364-4.136,9.804L3.668,244.132
			C1.612,244.244,0,245.94,0,248s1.612,3.76,3.668,3.872l195.988,10.58c1.144,3.812,2.756,7.408,4.732,10.784l-61.072,74.604
			c-0.084,0.1-0.104,0.232-0.176,0.336c-0.152,0.228-0.272,0.452-0.376,0.696c-0.084,0.232-0.156,0.452-0.208,0.688
			c-0.044,0.248-0.064,0.484-0.068,0.736c0.004,0.248,0.024,0.484,0.068,0.732c0.052,0.24,0.12,0.46,0.208,0.688
			c0.1,0.248,0.224,0.472,0.376,0.7c0.072,0.108,0.092,0.232,0.176,0.332c0.076,0.088,0.184,0.124,0.264,0.204
			c0.1,0.104,0.16,0.244,0.276,0.34c0.176,0.144,0.384,0.212,0.576,0.324c0.136,0.076,0.26,0.168,0.412,0.228
			c0.468,0.196,0.96,0.324,1.468,0.324h0.004c0.504,0,0.996-0.128,1.468-0.324c0.148-0.06,0.268-0.152,0.412-0.228
			c0.192-0.112,0.4-0.18,0.576-0.324l74.864-61.276c3.112,1.712,6.436,3.072,9.908,4.096l10.592,196.216
			c0.108,2.06,1.808,3.672,3.864,3.672c2.064,0,3.756-1.612,3.876-3.668l10.596-196.38c3.276-1.008,6.404-2.348,9.352-3.976
			l74.916,61.316c0.18,0.144,0.384,0.212,0.576,0.324c0.144,0.076,0.264,0.168,0.408,0.228c0.476,0.196,0.968,0.324,1.468,0.324
			h0.008c0.508,0,1-0.128,1.468-0.324c0.152-0.06,0.272-0.152,0.412-0.228c0.196-0.112,0.4-0.18,0.576-0.324
			c0.12-0.096,0.176-0.236,0.28-0.34c0.084-0.08,0.188-0.116,0.26-0.204c0.084-0.1,0.108-0.228,0.176-0.332
			c0.152-0.228,0.272-0.452,0.372-0.7c0.088-0.232,0.16-0.452,0.212-0.688c0.048-0.248,0.064-0.48,0.064-0.732
			c0-0.252-0.016-0.488-0.064-0.736c-0.052-0.236-0.12-0.456-0.212-0.688c-0.096-0.248-0.22-0.468-0.372-0.696
			c-0.068-0.104-0.088-0.236-0.176-0.336l-61.144-74.696c1.944-3.332,3.536-6.9,4.676-10.664l196.6-10.612
			C494.392,251.76,496,250.056,496,248C496,245.944,494.392,244.244,492.328,244.132z M247.696,270.772
			c-12.58,0-22.772-10.192-22.772-22.772c0-12.572,10.196-22.768,22.772-22.768c12.576,0,22.768,10.196,22.768,22.768
			C270.464,260.58,260.268,270.772,247.696,270.772z"/>
	</g>
</g>
</svg>